# xmcd
#
# Track frame offsets:
#	150
#	19417
#	36020
#	55736
#	71393
#	91284
#	108544
#	128871
#	144193
#	161167
#	177711
#	196423
#	214619
#	233584
#	257791
#	275234
#
# Disc length: 3914 seconds
#
# Revision: 0
# Processed by: cddbd v1.5.2PL0 Copyright (c) Steve Scherf et al.
# Submitted via: EasyCDDAExtractor 12.1.0.1
#
DISCID=eb0f4810
DTITLE=Various Artist - 명작 가요 101 CD6
DYEAR=1900
DGENRE=
TTITLE0=박혜경 - 사랑과 우정사이
TTITLE1=럼블피쉬 - 그대 내게 다시
TTITLE2=엠씨더맥스 - 나만의 슬픔
TTITLE3=이정 - 날 울리지마
TTITLE4=백지영 - 안되겠니
TTITLE5=김범수 - 잊혀진 계절
TTITLE6=화요비 - 이별
TTITLE7=엠씨더맥스 - 붉은 노을
TTITLE8=거북이 - 그대 내맘에 들어오면은
TTITLE9=더네임 - 인연
TTITLE10=박효신 - 묻어버린 아픔
TTITLE11=저스트 - 비가
TTITLE12=이지훈 - 희야
TTITLE13=이소은 - 눈의 꽃
TTITLE14=송창의 - 사랑이라는 이유로
TTITLE15=김형중 - 동화
EXTD=
EXTT0=
EXTT1=
EXTT2=
EXTT3=
EXTT4=
EXTT5=
EXTT6=
EXTT7=
EXTT8=
EXTT9=
EXTT10=
EXTT11=
EXTT12=
EXTT13=
EXTT14=
EXTT15=
PLAYORDER=
